<svg width="18" height="18" viewBox="0 0 18 18" fill="none" xmlns="http://www.w3.org/2000/svg">
<path d="M9 0C4.03125 0 0 4.03125 0 9C0 13.9687 4.03125 18 9 18C13.9687 18 18 13.9687 18 9C18 4.03125 13.9687 0 9 0ZM8.71875 14.25C8.53333 14.25 8.35207 14.195 8.1979 14.092C8.04373 13.989 7.92357 13.8426 7.85261 13.6713C7.78165 13.5 7.76309 13.3115 7.79926 13.1296C7.83544 12.9477 7.92472 12.7807 8.05584 12.6496C8.18695 12.5185 8.35399 12.4292 8.53585 12.393C8.71771 12.3568 8.90621 12.3754 9.07751 12.4464C9.24882 12.5173 9.39524 12.6375 9.49825 12.7916C9.60126 12.9458 9.65625 13.1271 9.65625 13.3125C9.65625 13.5611 9.55748 13.7996 9.38166 13.9754C9.20585 14.1512 8.96739 14.25 8.71875 14.25V14.25ZM10.2862 9.46875C9.5264 9.97875 9.42187 10.4461 9.42187 10.875C9.42187 11.049 9.35273 11.216 9.22966 11.339C9.10659 11.4621 8.93967 11.5312 8.76562 11.5312C8.59157 11.5312 8.42466 11.4621 8.30158 11.339C8.17851 11.216 8.10937 11.049 8.10937 10.875C8.10937 9.84797 8.58187 9.0314 9.55406 8.37844C10.4578 7.77187 10.9687 7.3875 10.9687 6.54234C10.9687 5.96766 10.6406 5.53125 9.9614 5.20828C9.80156 5.13234 9.44578 5.05828 9.00797 5.06344C8.45859 5.07047 8.03203 5.20172 7.70344 5.46609C7.08375 5.96484 7.03125 6.50765 7.03125 6.51562C7.02709 6.6018 7.006 6.68632 6.96919 6.76435C6.93237 6.84238 6.88054 6.91239 6.81666 6.9704C6.75279 7.0284 6.67811 7.07325 6.5969 7.10239C6.51569 7.13153 6.42954 7.14439 6.34336 7.14023C6.25718 7.13608 6.17266 7.11499 6.09463 7.07817C6.0166 7.04135 5.94659 6.98952 5.88859 6.92565C5.83059 6.86177 5.78574 6.7871 5.75659 6.70589C5.72745 6.62468 5.71459 6.53852 5.71875 6.45234C5.7239 6.33844 5.80312 5.31234 6.87984 4.44609C7.43812 3.99703 8.14828 3.76359 8.98922 3.75328C9.58453 3.74625 10.1437 3.84703 10.523 4.02609C11.6578 4.56281 12.2812 5.45766 12.2812 6.54234C12.2812 8.12812 11.2214 8.84015 10.2862 9.46875Z" fill="#4FD1C5"/>
</svg>
